<?xml version="1.0" standalone="no"?>
<!DOCTYPE svg PUBLIC "-//W3C//DTD SVG 20010904//EN"
 "http://www.w3.org/TR/2001/REC-SVG-20010904/DTD/svg10.dtd">
<svg version="1.0" xmlns="http://www.w3.org/2000/svg"
 width="500.000000pt" height="500.000000pt" viewBox="0 0 500.000000 500.000000"
 preserveAspectRatio="xMidYMid meet">
<metadata>
Created by potrace 1.11, written by Peter Selinger 2001-2013
</metadata>
<g transform="translate(0.000000,500.000000) scale(0.100000,-0.100000)"
fill="#000000" stroke="none">
<path d="M2366 3513 c-75 -302 -146 -582 -157 -625 l-21 -76 -619 -153 c-340
-85 -619 -156 -619 -159 0 -4 939 -243 1041 -265 9 -2 57 -13 108 -26 90 -22
91 -23 101 -58 5 -20 75 -299 155 -621 80 -321 148 -586 149 -588 2 -1 69 262
150 585 81 323 151 604 156 624 l10 35 620 154 c341 85 620 157 620 160 0 4
-1099 281 -1130 285 -47 6 -110 30 -114 43 -3 10 -73 289 -156 622 -83 333
-153 606 -154 608 -2 1 -65 -244 -140 -545z"/>
<path d="M4452 3186 c-64 -62 -153 -148 -197 -191 -244 -235 -413 -406 -398
-401 14 4 269 52 383 72 14 3 33 7 44 10 14 5 16 3 10 -9 -8 -14 -108 -125
-245 -272 -70 -76 -132 -144 -156 -171 -10 -11 -58 -65 -108 -119 -49 -54
-101 -110 -113 -124 -29 -32 -191 -209 -212 -231 -8 -9 -24 -27 -35 -40 l-20
-23 20 6 c11 3 41 8 68 11 26 3 68 9 95 12 26 3 55 8 66 11 21 6 9 -14 -126
-194 -45 -61 -90 -121 -98 -133 -8 -12 -44 -61 -80 -108 -36 -48 -96 -130
-135 -182 -38 -52 -107 -146 -153 -209 -46 -62 -80 -112 -74 -110 5 2 77 68
158 146 82 78 160 151 174 163 14 12 59 54 100 93 74 71 321 303 390 367 19
18 91 86 160 150 69 65 138 130 154 145 l29 26 -34 -6 c-19 -3 -50 -8 -69 -10
-85 -9 -158 -17 -190 -21 -19 -2 -62 -7 -95 -10 l-60 -7 36 34 c31 30 198 185
279 259 15 14 74 68 131 121 57 53 118 108 134 123 17 15 80 74 140 131 61 56
133 123 160 148 28 25 86 79 130 121 l80 75 -55 1 c-145 3 -363 10 -365 12 -2
2 130 95 292 207 161 112 291 206 288 209 -2 3 -20 6 -37 7 -18 1 -91 5 -163
9 -71 4 -143 9 -158 12 -25 4 -42 -9 -145 -110z"/>
<path d="M338 3274 c-2 -1 -59 -5 -128 -9 -128 -6 -201 -13 -208 -19 -3 -3
184 -135 418 -295 52 -36 97 -67 100 -71 3 -3 21 -16 40 -28 l35 -22 -45 -1
c-187 -5 -254 -7 -315 -8 l-70 -2 65 -61 c36 -33 92 -86 126 -117 33 -31 114
-105 179 -166 65 -60 126 -117 137 -126 10 -9 71 -66 135 -125 64 -60 124
-116 134 -125 10 -8 72 -66 139 -129 67 -63 133 -125 148 -138 l27 -24 -70 7
c-38 3 -83 8 -100 11 -16 2 -52 6 -80 9 -81 8 -128 14 -160 21 l-30 6 20 -22
c11 -13 44 -46 74 -74 30 -28 71 -67 92 -86 52 -50 299 -281 394 -370 44 -41
105 -98 135 -126 30 -29 73 -69 96 -91 23 -21 97 -90 165 -154 177 -167 191
-179 195 -179 2 0 -32 48 -76 108 -44 59 -125 168 -180 242 -55 74 -163 221
-241 325 -199 269 -205 278 -183 271 11 -3 44 -8 74 -11 30 -3 69 -8 85 -11
17 -3 43 -7 58 -9 l28 -4 -32 37 c-18 20 -59 66 -92 102 -116 126 -163 177
-252 275 -100 111 -216 237 -225 245 -3 3 -25 28 -49 55 -25 28 -88 97 -140
154 -98 105 -113 124 -89 116 7 -2 29 -6 48 -9 19 -3 71 -12 114 -21 44 -8 91
-17 105 -20 14 -2 59 -11 99 -18 39 -8 72 -13 72 -12 0 3 -289 288 -400 395
-47 45 -135 132 -197 193 -89 88 -118 110 -142 112 -17 1 -32 1 -33 -1z"/>
</g>
</svg>
